<?xml version="1.0" standalone="no"?>
<!DOCTYPE svg PUBLIC "-//W3C//DTD SVG 20010904//EN"
 "http://www.w3.org/TR/2001/REC-SVG-20010904/DTD/svg10.dtd">
<svg version="1.0" xmlns="http://www.w3.org/2000/svg"
 width="337.000000pt" height="294.000000pt" viewBox="0 0 337.000000 294.000000"
 preserveAspectRatio="xMidYMid meet">

<g transform="translate(0.000000,294.000000) scale(0.100000,-0.100000)"
fill="#1420bb" stroke="none">
<path d="M1350 2635 l305 -305 -303 -303 c-166 -166 -302 -305 -302 -310 0 -4
275 -7 610 -7 336 0 610 1 610 3 0 1 -138 141 -307 310 l-308 307 305 305 306
305 -611 0 -610 0 305 -305z"/>
<path d="M2280 2333 l0 -611 248 -143 c136 -78 265 -155 287 -169 64 -43 516
-302 519 -299 2 2 -219 389 -491 859 -271 470 -509 882 -528 915 l-34 60 -1
-612z"/>
<path d="M521 2038 c-282 -489 -516 -899 -518 -909 -5 -18 196 92 452 247 39
23 186 109 327 191 l257 148 1 608 c0 334 -1 607 -2 607 -2 -1 -234 -402 -517
-892z"/>
<path d="M2263 1696 c-10 -12 -296 -508 -516 -896 -42 -74 -83 -142 -89 -150
-12 -15 -152 -97 -791 -466 l-259 -149 525 -3 c289 -1 764 -1 1056 0 l530 3
-207 120 c-114 66 -225 129 -248 140 -68 34 -594 340 -594 346 0 3 134 41 298
84 163 43 351 93 417 110 66 18 121 32 121 31 1 0 50 -180 109 -400 58 -219
109 -406 113 -416 5 -13 72 95 252 407 135 234 255 446 268 471 13 25 39 72
58 105 19 33 34 61 32 62 -5 5 -683 -177 -688 -184 -8 -10 -132 -43 -138 -36
-5 5 -170 610 -209 768 -9 37 -19 67 -22 67 -3 -1 -11 -7 -18 -14z"/>
<path d="M1031 1653 c-8 -27 -15 -52 -17 -58 -2 -5 -5 -19 -7 -30 -3 -11 -11
-40 -18 -65 -7 -25 -14 -49 -15 -55 -2 -5 -5 -19 -8 -30 -77 -274 -144 -541
-138 -546 10 -9 802 -221 813 -217 5 2 -18 50 -52 108 -34 58 -66 117 -73 131
-19 43 -461 809 -466 809 -3 0 -12 -21 -19 -47z"/>
<path d="M0 1078 c0 -7 10 -29 22 -48 11 -19 35 -62 52 -95 41 -79 519 -906
522 -902 1 1 50 182 108 402 59 220 109 407 112 416 3 12 -11 20 -63 34 -38
10 -70 21 -73 25 -5 6 -655 181 -672 180 -5 0 -8 -6 -8 -12z"/>
</g>
</svg>
